<svg width="1410" height="737" viewBox="0 0 1410 737"
    xmlns="http://www.w3.org/2000/svg"
    xmlns:xlink="http://www.w3.org/1999/xlink">
    <defs>
        <path id="a" d="M0 .836h1440v735.89H0z"/>
    </defs>
    <g transform="translate(-24.879)" fill="none" fill-rule="evenodd">
        <mask id="b" fill="#fff">
            <use xlink:href="#a"/>
        </mask>
        <g style="mix-blend-mode:overlay" mask="url(#b)">
            <g fill="#FFF" fill-rule="nonzero">
                <path opacity=".15" d="M749.909 546.789l-181.33 46.53 85.967-212.105z"/>
                <path opacity=".25" d="M568.58 593.319L451.312 639.56l203.233-258.346z"/>
                <path opacity=".15" d="M654.546 381.214L451.313 639.56l-36.01 11.62z"/>
                <path opacity=".3" d="M749.909 546.789l-95.363-165.575L811.8 423.687z"/>
                <path opacity=".2" d="M654.546 381.214L854.64 2.932 811.8 423.687z"/>
                <path opacity=".3" d="M1057.193 300.716L811.8 423.687l258.975-216.92z"/>
                <path opacity=".25" d="M811.8 423.687L854.64 2.932l216.135 203.835z"/>
                <path opacity=".2" d="M1325.745 331.989l-268.552-31.273 13.582-93.95z"/>
                <path opacity=".3" d="M866.6 952.13l13.162-206.06-299.328-80.21z"/>
                <path opacity=".15" d="M568.58 593.319L451.312 639.56l129.121 26.3z"/>
                <path opacity=".15" d="M451.313 639.56l-36.01 11.62 165.131 14.68z"/>
                <path opacity=".05" d="M879.762 746.07L749.91 546.79 580.434 665.861zM749.909 546.789l61.89-123.102 194.075 102.716z"/>
                <path opacity=".15" d="M1183.304 477.152l-126.111-176.436-51.32 225.687zM879.762 746.07L749.91 546.79l255.965-20.386z"/>
            </g>
            <g fill="#FFF" fill-rule="nonzero" opacity=".5">
                <path opacity=".15" d="M394.944 674.392L290.736 829.918l-77.253-215.454z"/>
                <path opacity=".25" d="M290.736 829.918l-56.605 112.608-20.648-328.062z"/>
                <path opacity=".15" d="M213.483 614.464l20.648 328.062-19.156 32.66z"/>
                <path opacity=".3" d="M394.944 674.392l-181.46-59.928 145.581-73.144z"/>
                <path opacity=".2" d="M213.483 614.464L110.637 199.047 359.065 541.32z"/>
                <path opacity=".3" d="M460.106 286.166L359.066 541.32l48.57-334.291z"/>
                <path opacity=".25" d="M359.065 541.32L110.637 199.047l296.999 7.982z"/>
                <path opacity=".2" d="M681.187 130.535l-221.08 155.63-52.471-79.136z"/>
                <path opacity=".3" d="M752.028 898.85L624.556 736.44 347.943 876.082z"/>
                <path opacity=".05" d="M624.556 736.44l-229.612-62.048-47.001 201.69zM394.944 674.392L359.065 541.32l213.152-52.68z"/>
                <path opacity=".15" d="M671.714 333.663l-211.608-47.497 112.11 202.474zM624.556 736.44l-229.612-62.048L572.217 488.64z"/>
            </g>
            <g fill="#FFF" fill-rule="nonzero" opacity=".3">
                <path opacity=".3" d="M1405.301 680.28l86.386 170.47-154.793-50.848z"/>
                <path opacity=".05" d="M1405.301 680.28l-68.407 119.622-188.29-113z"/>
                <path opacity=".15" d="M968.791 726.548L1085.273 909.5l63.33-222.599zM1286.308 474.325L1405.3 680.28l-256.698 6.621z"/>
            </g>
            <g fill="#FFF" fill-rule="nonzero" opacity=".3">
                <path opacity=".15" d="M706.022 29.808L889.576-6.908l-97.194 207.185z"/>
                <path opacity=".25" d="M889.576-6.908l119.57-39.909-216.764 247.094z"/>
                <path opacity=".15" d="M792.382 200.277l216.763-247.094 36.611-9.656z"/>
                <path opacity=".3" d="M706.022 29.808l86.36 170.469-154.793-50.848z"/>
                <path opacity=".2" d="M792.382 200.277L572.243 567.28l65.346-417.85z"/>
                <path opacity=".3" d="M385.968 259.028l251.62-109.599-270.227 202.71z"/>
                <path opacity=".25" d="M637.589 149.43l-65.346 417.85-204.882-215.14z"/>
                <path opacity=".2" d="M119.482 213.414l266.486 45.614-18.607 93.111z"/>
                <path opacity=".05" d="M706.022 29.808L637.59 149.429l-188.265-113z"/>
                <path opacity=".15" d="M269.486 76.102l116.482 182.926 63.356-222.6z"/>
            </g>
            <g fill="#FFF" fill-rule="nonzero" opacity=".3">
                <path opacity=".15" d="M870.08 328.665l183.58-36.716-97.22 207.211z"/>
                <path opacity=".25" d="M1053.66 291.949l119.569-39.909-216.79 247.12z"/>
                <path opacity=".15" d="M894.879 499.16l216.79-247.12 36.61-9.656z"/>
                <path opacity=".3" d="M870.08 328.665l86.36 170.495-154.768-50.874z"/>
                <path opacity=".2" d="M956.44 499.16L736.326 866.137l65.345-417.85z"/>
                <path opacity=".3" d="M550.051 557.911l251.621-109.625-270.227 202.71z"/>
                <path opacity=".25" d="M801.672 448.286l-65.345 417.851-204.882-215.14z"/>
                <path opacity=".2" d="M283.566 512.271l266.485 45.64-18.606 93.085z"/>
                <path opacity=".15" d="M1053.66 291.949l119.569-39.909-127.525-33.183zM1173.229 252.04l36.611-9.656-164.136-23.527z"/>
                <path opacity=".05" d="M751.086 122.736L870.08 328.665l175.624-109.808zM870.08 328.665l-68.408 119.621-188.264-113z"/>
                <path opacity=".15" d="M433.57 374.96L550.051 557.91l63.357-222.625zM751.086 122.736L870.08 328.665l-256.672 6.621z"/>
            </g>
            <g fill="#FFF" fill-rule="nonzero" opacity=".65">
                <path opacity=".15" d="M871.1 385.4L823.63 284.937l133.281 26.3z"/>
                <path opacity=".25" d="M823.629 284.936l-40.119-63.122 173.4 89.422z"/>
                <path opacity=".15" d="M956.91 311.236l-173.4-89.422-10.808-19.705z"/>
                <path opacity=".3" d="M871.1 385.4l85.81-74.164-7.118 96.409z"/>
                <path opacity=".2" d="M956.91 311.236l242.88 74.165-249.998 22.244z"/>
                <path opacity=".3" d="M1048.975 536.845l-99.183-129.2 155.448 126.583z"/>
                <path opacity=".25" d="M949.792 407.645l249.999-22.244-94.551 148.827z"/>
                <path opacity=".2" d="M1060.882 696.846l-11.907-160.001 56.265-2.617z"/>
                <path opacity=".3" d="M648.004 498.899l121.558-15.467 13.111-183.423z"/>
                <path opacity=".15" d="M823.629 284.936l-40.119-63.122-.837 78.195z"/>
                <path opacity=".15" d="M783.51 221.814l-10.808-19.705 9.971 97.9z"/>
                <path opacity=".05" d="M769.562 483.432L871.1 385.401l-88.427-85.392zM871.1 385.4l78.692 22.245-38.076 124.62z"/>
                <path opacity=".15" d="M960.313 630.14l88.662-93.295-137.26-4.58zM769.562 483.432L871.1 385.401l40.616 146.864z"/>
            </g>
            <g fill="#FFF" fill-rule="nonzero" opacity=".65">
                <path opacity=".15" d="M726.565 477.204l-47.471-100.465 133.255 26.3z"/>
                <path opacity=".25" d="M679.094 376.739l-40.118-63.121 173.373 89.421z"/>
                <path opacity=".15" d="M812.35 403.04l-173.374-89.422-10.809-19.706z"/>
                <path opacity=".3" d="M726.565 477.204l85.784-74.165-7.118 96.435z"/>
                <path opacity=".2" d="M812.35 403.04l242.906 74.164-250.025 22.27z"/>
                <path opacity=".3" d="M904.414 628.674l-99.183-129.2 155.474 126.557z"/>
                <path opacity=".25" d="M805.231 499.474l250.025-22.27-94.55 148.827z"/>
                <path opacity=".2" d="M916.348 788.675l-11.934-160.001 56.291-2.643z"/>
                <path opacity=".3" d="M503.443 590.702l121.558-15.467 13.137-183.423z"/>
                <path opacity=".15" d="M679.094 376.739l-40.118-63.121-.838 78.194z"/>
                <path opacity=".15" d="M638.976 313.618l-10.809-19.706 9.971 97.9z"/>
                <path opacity=".05" d="M625.001 575.235l101.564-98.031-88.427-85.392zM726.565 477.204l78.666 22.27-38.077 124.62z"/>
                <path opacity=".15" d="M815.778 721.942l88.636-93.268-137.26-4.58zM625.001 575.235l101.564-98.031 40.59 146.89z"/>
            </g>
            <g fill="#FFF" fill-rule="nonzero" opacity=".65">
                <path opacity=".15" d="M247.975 233.041l-47.446-100.465 133.256 26.3z"/>
                <path opacity=".25" d="M200.53 132.576L160.41 69.455l173.374 89.421z"/>
                <path opacity=".15" d="M333.785 158.876L160.411 69.455l-10.808-19.706z"/>
                <path opacity=".3" d="M247.975 233.041l85.81-74.165-7.092 96.436z"/>
                <path opacity=".2" d="M333.785 158.876l242.907 74.165-249.999 22.27z"/>
                <path opacity=".3" d="M425.85 384.511l-99.157-129.2 155.474 126.557z"/>
                <path opacity=".25" d="M326.693 255.312l249.999-22.27-94.525 148.826z"/>
                <path opacity=".2" d="M437.783 544.512l-11.933-160 56.317-2.644z"/>
                <path opacity=".3" d="M24.879 346.539l121.558-15.466 13.137-183.423z"/>
                <path opacity=".15" d="M200.53 132.576L160.41 69.455l-.837 78.195z"/>
                <path opacity=".15" d="M160.411 69.455l-10.808-19.706 9.971 97.9z"/>
                <path opacity=".05" d="M146.437 331.073l101.538-98.032-88.401-85.391z"/>
                <path opacity=".05" d="M247.975 233.041l78.718 22.27-38.103 124.594z"/>
                <path opacity=".15" d="M337.187 477.78l88.663-93.269-137.26-4.606zM146.437 331.073l101.538-98.032 40.615 146.864z"/>
            </g>
            <g fill="#FFF" fill-rule="nonzero" opacity=".65">
                <path opacity=".15" d="M478.477 600.254l-47.472-100.44 133.282 26.275z"/>
                <path opacity=".25" d="M431.005 499.814l-40.091-63.147 173.373 89.422z"/>
                <path opacity=".15" d="M564.287 526.089l-173.373-89.422-10.808-19.68z"/>
                <path opacity=".3" d="M478.477 600.254l85.81-74.165-7.118 96.435z"/>
                <path opacity=".2" d="M564.287 526.089l242.88 74.165-249.998 22.27z"/>
                <path opacity=".3" d="M656.352 751.723l-99.183-129.2L712.643 749.08z"/>
                <path opacity=".25" d="M557.17 622.524l249.998-22.27-94.525 148.826z"/>
                <path opacity=".3" d="M255.381 713.751l121.558-15.44 13.137-183.449z"/>
                <path opacity=".15" d="M431.005 499.814l-40.091-63.147-.838 78.195z"/>
                <path opacity=".15" d="M390.914 436.667l-10.808-19.68 9.97 97.875z"/>
                <path opacity=".05" d="M376.939 698.311l101.538-98.057-88.4-85.392z"/>
                <path opacity=".05" d="M478.477 600.254l78.692 22.27-38.077 124.62z"/>
                <path opacity=".15" d="M376.939 698.311l101.538-98.057 40.615 146.89z"/>
            </g>
            <g fill="#FFF" fill-rule="nonzero" opacity=".65">
                <path opacity=".15" d="M652.584 466.788l-184.915-51.685 185.124-144.299z"/>
                <path opacity=".25" d="M467.67 415.103l-127.866-19.077 312.99-125.222z"/>
                <path opacity=".15" d="M652.793 270.804L339.804 396.026l-37.946-8.165z"/>
                <path opacity=".3" d="M652.584 466.788l.21-195.984 117.92 118.391z"/>
                <path opacity=".2" d="M652.793 270.804L1024.56 37.475l-253.845 351.72z"/>
                <path opacity=".3" d="M1051.697 405.865l-280.983-16.67 341.252-59.823z"/>
                <path opacity=".25" d="M770.714 389.195l253.845-351.72 87.407 291.897z"/>
                <path opacity=".2" d="M1274.191 571.362l-222.494-165.497 60.269-76.493z"/>
                <path opacity=".3" d="M548.35 886.654l117.37-176.279-224.718-224.744z"/>
                <path opacity=".15" d="M467.67 415.103l-127.866-19.077 101.198 89.605z"/>
                <path opacity=".15" d="M339.804 396.026l-37.946-8.165 139.144 97.77z"/>
                <path opacity=".05" d="M665.72 710.375l-13.136-243.587-211.582 18.843z"/>
                <path opacity=".05" d="M652.584 466.788l118.13-77.593L890.36 579.972z"/>
                <path opacity=".15" d="M1073.235 627.26l-21.538-221.395L890.36 579.972zM665.72 710.375l-13.136-243.587L890.36 579.972z"/>
            </g>
        </g>
    </g>
</svg>
