<?xml version="1.0" encoding="UTF-8"?>
<svg width="192px" height="55px" viewBox="0 0 192 55" version="1.1" xmlns="http://www.w3.org/2000/svg" xmlns:xlink="http://www.w3.org/1999/xlink">
    <!-- Generator: Sketch 62 (91390) - https://sketch.com -->
    <title>logo-invert</title>
    <desc>Created with Sketch.</desc>
    <g id="Delivery" stroke="none" stroke-width="1" fill="none" fill-rule="evenodd">
        <g id="Careers" transform="translate(-69.000000, -38.000000)" fill="#F5F5F5" fill-rule="nonzero">
            <g id="logo-invert" transform="translate(69.000000, 38.461884)">
                <g id="Group" transform="translate(40.604167, 1.000000)">
                    <g id="Path">
                        <path d="M12.8285417,19.02875 L2.54166667,19.02875 L2.54166667,0.862083333 C2.40541667,0.407916667 2.291875,0.294375 1.86041667,0.3625 L0.838541667,0.49875 C0.270833333,0.589583333 0.270833333,0.77125 0.270833333,1.27083333 L0.270833333,19.165 C0.146500018,19.678633 0.274513564,20.2207685 0.615470495,20.6245332 C0.956427427,21.028298 1.46946502,21.2453021 1.99666667,21.20875 L12.57875,21.20875 C13.191875,21.20875 13.464375,20.9135417 13.600625,20.323125 L13.736875,19.8008333 C13.8958333,19.2104167 13.6233333,19.0060417 12.8285417,19.02875 Z"></path>
                        <path d="M18.4375,0.0445833333 L17.3702083,0.203541667 C16.93875,0.203541667 16.8025,0.453333333 16.8025,0.952916667 L16.8025,21.0952083 C16.8025,21.549375 16.93875,21.685625 17.3702083,21.6175 L18.4375,21.4585417 C18.8689583,21.4585417 18.9825,21.2314583 18.9825,20.731875 L18.9825,0.566875 C19.050625,0.112708333 18.9370833,-0.000833333333 18.4375,0.0445833333 Z"></path>
                        <path d="M38.875,10.85375 L33.1297917,10.85375 C32.5847917,10.85375 32.3804167,11.0354167 32.3804167,11.67125 L32.3804167,11.9664583 C32.3804167,12.556875 32.5847917,12.76125 33.1297917,12.76125 L37.6714583,12.76125 L37.6714583,18.5745833 C36.4115259,18.8655912 35.1261947,19.0329124 33.83375,19.0741667 C28.2020833,19.0741667 25.25,16.2810417 25.25,10.85375 C25.25,5.42645833 28.179375,2.63333333 33.6747917,2.63333333 C35.1005763,2.66891863 36.5176504,2.86700427 37.8985417,3.22375 C38.670625,3.428125 38.9658333,3.36 39.1247917,2.83770833 L39.1247917,2.38354167 C39.28375,1.77041667 39.1247917,1.49791667 38.2391667,1.29354167 C36.5922953,0.864377635 34.8996282,0.635638831 33.1979167,0.612291667 C26.7033333,0.612291667 23.07,4.31375 23.07,10.85375 C23.07,17.39375 26.7260417,21.0952716 33.1979167,21.0952716 C34.7882733,21.0991773 36.3735876,20.9162564 37.92125,20.5502083 C39.1702083,20.3004167 39.624375,19.8008333 39.624375,18.8470833 L39.624375,11.8529167 C39.7379167,11.12625 39.488125,10.85375 38.875,10.85375 Z"></path>
                        <path d="M58.971875,0.385208333 L57.9272917,0.521458333 C57.54125,0.521458333 57.405,0.77125 57.405,1.248125 L57.405,9.24145833 L46.2552083,9.24145833 L46.2552083,0.884791667 C46.2552083,0.430625 46.1189583,0.317083333 45.6875,0.385208333 L44.6429167,0.521458333 C44.2341667,0.521458333 44.120625,0.77125 44.0752083,1.248125 L44.0752083,20.8 C44.0752083,21.2314583 44.2341667,21.345 44.6429167,21.2995833 L45.6875,21.140625 C46.1189583,21.140625 46.2325,20.9135417 46.2552083,20.4366667 L46.2552083,11.3533333 L57.405,11.3533333 L57.405,20.8 C57.405,21.2314583 57.54125,21.345 57.9727083,21.2995833 L58.9945833,21.140625 C59.380625,21.140625 59.516875,20.9135417 59.585,20.4366667 L59.585,0.884791667 C59.516875,0.430625 59.3125,0.317083333 58.971875,0.385208333 Z"></path>
                        <path d="M80.0679167,1.86125 L80.0679167,1.36166667 C79.75,0.77125 79.5229167,0.589583333 78.9097917,0.521458333 L64.2402083,0.521458333 C63.604375,0.521458333 63.331875,0.77125 63.195625,1.36166667 L63.0820833,1.86125 C62.923125,2.45166667 63.195625,2.65604167 63.9904167,2.70145833 L70.4622917,2.70145833 L70.4622917,20.868125 C70.4622917,21.2995833 70.6439583,21.413125 71.0754167,21.3677083 L72.0972917,21.20875 C72.4833333,21.20875 72.6422917,20.9816667 72.6422917,20.5047917 L72.6422917,2.70145833 L79.1595833,2.70145833 C79.9770833,2.65604167 80.226875,2.45166667 80.0679167,1.86125 Z"></path>
                        <path d="M100.936875,0.884791667 L100.936875,20.8908333 C100.936875,21.2541667 100.936875,21.3904167 100.936875,21.3904167 C100.936875,21.3904167 100.687083,21.5039583 100.391875,21.1860417 L85.6995833,4.88145833 L85.6995833,20.4139583 C85.6995833,20.9135417 85.6995833,21.0952083 85.1545833,21.1633333 L84.0872917,21.2995833 C83.6558333,21.2995833 83.5195787,21.2995833 83.5195787,20.8 L83.5195787,1.13458333 C83.5181392,0.695901963 83.8544271,0.329941575 84.2916667,0.294375 C84.5634009,0.245856781 84.8419474,0.330264808 85.0410417,0.521458333 C85.0410417,0.521458333 98.8704167,16.0085417 98.8704167,16.0085417 L98.8704167,1.27083333 C98.8704167,0.793958333 99.0066667,0.612291667 99.438125,0.544166667 L100.391875,0.3625 C100.823333,0.294375 100.936875,0.430625 100.936875,0.884791667 Z"></path>
                        <path d="M107.454167,0.0445833333 L106.386875,0.203541667 C105.955417,0.203541667 105.841875,0.430625 105.841875,0.930208333 L105.841875,21.1179167 C105.841875,21.5720833 105.955417,21.685625 106.386875,21.6402083 L107.454167,21.48125 C107.885625,21.48125 108.021875,21.2314583 108.021875,20.7545833 L108.021875,0.566875 C108.021875,0.112708333 107.885625,-0.0235416667 107.454167,0.0445833333 Z"></path>
                        <path d="M150.145833,10.85375 L144.128125,10.85375 C143.583125,10.85375 143.37875,11.0354167 143.37875,11.67125 L143.37875,11.9664583 C143.37875,12.556875 143.583125,12.76125 144.128125,12.76125 L148.82875,12.76125 L148.82875,18.5745833 C147.568539,18.8640434 146.283359,19.0313449 144.991042,19.0741667 C139.495625,19.0741667 136.520833,16.2810417 136.520833,10.85375 C136.520833,5.42645833 139.450208,2.63333333 144.945625,2.63333333 C146.36404,2.66765468 147.773738,2.86577437 149.146667,3.22375 C149.941458,3.428125 150.236667,3.36 150.395625,2.83770833 L150.395625,2.38354167 C150.554583,1.77041667 150.395625,1.49791667 149.487292,1.29354167 C147.84813,0.864442921 146.162984,0.635690061 144.46875,0.612291667 C137.974167,0.612291667 134.363542,4.31375 134.363542,10.85375 C134.363542,17.39375 138.019583,21.0952382 144.46875,21.0952382 C146.059036,21.097927 147.644205,20.9150229 149.192083,20.5502083 C150.418333,20.3004167 150.8725,19.8008333 150.8725,18.8470833 L150.8725,11.8529167 C150.986042,11.12625 150.758958,10.85375 150.145833,10.85375 Z"></path>
                        <path d="M130.593958,0.884791667 L130.593958,20.8908333 C130.593958,21.2541667 130.593958,21.3904167 130.593958,21.3904167 C130.593958,21.3904167 130.344167,21.5039583 130.048958,21.1860417 L115.356667,4.88145833 L115.356667,20.4139583 C115.356667,20.9135417 115.243125,21.0952083 114.811667,21.1633333 L113.8125,21.2995833 C113.40375,21.2995833 113.2675,21.2995833 113.2675,20.8 L113.2675,1.13458333 C113.244166,0.765016116 113.465531,0.423745601 113.8125,0.294375 C114.077338,0.245779277 114.349123,0.330711863 114.539167,0.521458333 L128.39125,16.0085417 L128.39125,1.27083333 C128.39125,0.793958333 128.5275,0.612291667 128.93625,0.544166667 L130.048958,0.3625 C130.480417,0.294375 130.593958,0.430625 130.593958,0.884791667 Z"></path>
                    </g>
                    <g transform="translate(1.270833, 30.791667)">
                        <path d="M12.625,19.2339583 L2.27,19.2339583 L2.27,1.18083333 C2.27,0.749375 2.065625,0.613125 1.656875,0.68125 L0.612291667,0.8175 C0.203541667,0.8175 0.0672916667,1.06729167 0.112708333,1.54416667 L0.112708333,19.4610417 C0.112708333,20.8008333 0.635,21.39125 1.88395833,21.4139583 L12.4660417,21.4139583 C13.101875,21.4139583 13.3516667,21.2095833 13.510625,20.6191667 L13.6241667,20.1195833 C13.7377083,19.5064583 13.510625,19.3020833 12.625,19.2339583 Z" id="Path"></path>
                        <path d="M33.4258333,20.7554167 L25.091875,1.294375 C24.9447855,0.861600921 24.5384414,0.570535145 24.0813542,0.570535145 C23.6242669,0.570535145 23.2179229,0.861600921 23.0708333,1.294375 L14.736875,20.7554167 C14.5552083,21.2095833 14.5779167,21.323125 14.8958333,21.39125 L16.03125,21.39125 C16.2002858,21.4466209 16.3850364,21.4258544 16.5375618,21.3343391 C16.6900872,21.2428239 16.795352,21.0895811 16.8260417,20.914375 L19.096875,15.873125 L29.11125,15.873125 L31.3820833,20.914375 C31.412773,21.0895811 31.5180378,21.2428239 31.6705632,21.3343391 C31.8230886,21.4258544 32.0078392,21.4466209 32.176875,21.39125 L33.3122917,21.39125 C33.5847917,21.323125 33.6529167,21.2095833 33.4258333,20.7554167 Z M19.8008333,14.3516667 L24.001875,3.79229167 L28.1802083,14.3516667 L19.8008333,14.3516667 Z" id="Shape"></path>
                        <path d="M46.8010417,10.6047917 C48.6435779,9.6555896 49.742476,7.69901489 49.5941667,5.63166667 C49.7070909,4.39659434 49.3100185,3.16906571 48.4951486,2.23410976 C47.6802788,1.2991538 46.5185032,0.73810954 45.2795833,0.68125 L37.4679167,0.68125 C36.400625,0.68125 36.0145833,1.27166667 36.0145833,2.4525 L36.0145833,19.7335417 C36.0145833,20.8689583 36.400625,21.323125 37.4679167,21.4139583 L45.1433333,21.4139583 C48.0855205,21.2796562 50.3937556,18.8409557 50.36625,15.8958333 C50.5023032,13.5312576 49.0436841,11.3665553 46.8010417,10.6047917 Z M38.1945833,2.656875 L44.848125,2.656875 C46.5739583,2.656875 47.6185417,4.58708333 47.6185417,5.90416667 C47.6185417,8.175 46.1652083,9.71916667 43.2585417,9.71916667 L38.1945833,9.71916667 L38.1945833,2.656875 Z M45.0070833,19.2339583 L38.1945833,19.2339583 L38.1945833,11.3541667 L42.4864583,11.3541667 C46.483125,11.3541667 48.4360417,12.67125 48.4360417,15.39625 C48.5320513,16.3772469 48.2096076,17.3532083 47.5480727,18.0839233 C46.8865378,18.8146383 45.9473491,19.2322448 44.9616667,19.2339583 L45.0070833,19.2339583 Z" id="Shape"></path>
                        <path d="M54.8852083,6.35833333 C54.8852083,4.0875 56.6110417,2.67958333 59.426875,2.67958333 C60.7240708,2.6895312 62.0115715,2.90411465 63.241875,3.31541667 C63.923125,3.56520833 64.195625,3.49708333 64.3772917,3.11104167 L64.5816667,2.49791667 C64.7860417,1.9075 64.5816667,1.635 63.8322917,1.3625 C62.4435706,0.850640444 60.975049,0.589228222 59.495,0.590412633 C55.1804167,0.590412633 52.6825,2.86125 52.6825,6.63083333 C52.6825,12.7620833 64.2183333,11.85375 64.2183333,16.0775 C64.2183333,18.3483333 62.424375,19.5972917 59.6766667,19.5972917 C57.8467238,19.6247206 56.0305636,19.2769452 54.3402083,18.5754167 C53.5908333,18.3029167 53.2502083,18.3483333 53.0458333,18.8025 L52.81875,19.4383333 C52.6370833,19.8925 52.81875,20.165 53.295625,20.369375 C55.2246045,21.208249 57.3008979,21.6559256 59.4041667,21.6864583 C63.9458333,21.6864583 66.3529503,19.5972917 66.3529503,15.7822917 C66.375625,9.81 54.8852083,10.5139583 54.8852083,6.35833333 Z" id="Path"></path>
                    </g>
                </g>
                <g id="Group">
                    <path d="M27.25,30.2475 L11.3541667,53.4327083 C11.0952102,53.812418 10.579216,53.9135933 10.1960417,53.6597917 C10.0071268,53.5351125 9.87650739,53.3394851 9.83376203,53.1172092 C9.79101668,52.8949334 9.83976152,52.6648129 9.96895833,52.4789583 L25.8647917,29.29375 C26.1281625,28.9112353 26.6517561,28.81465 27.0342708,29.0780208 C27.4167856,29.3413916 27.5133708,29.8649853 27.25,30.2475 L27.25,30.2475 Z" id="Path"></path>
                    <path d="M25.1608333,26.1145833 L9.62833333,48.8229167 C9.36496254,49.2054314 8.84136889,49.3020166 8.45885417,49.0386458 C8.07633945,48.775275 7.97975421,48.2516814 8.243125,47.8691667 L23.775625,25.1608333 C24.0389958,24.7783186 24.5625894,24.6817334 24.9451042,24.9451042 C25.3276189,25.208475 25.4242041,25.7320686 25.1608333,26.1145833 L25.1608333,26.1145833 Z" id="Path"></path>
                    <path d="M20.4375,1.31708333 L2.42979167,27.6360417 L19.3247917,27.6360417 L18.189375,29.3164583 L0.522291667,29.3164583 L0.363333333,29.3164583 C-0.0163763088,29.0575018 -0.117551629,28.5415077 0.13625,28.1583333 L19.006875,0.363333333 C19.2658315,-0.0163763088 19.7818256,-0.117551629 20.165,0.13625 C20.5634412,0.389129753 20.6848369,0.91517786 20.4375,1.31708333 Z" id="Path"></path>
                    <path d="M22.1179167,6.35833333 L10.2414583,23.7302083 L22.004375,23.7302083 L20.84625,25.410625 L7.06229167,25.410625 L8.19770833,23.7302083 L20.7327083,5.42729167 C21.0099982,5.1035648 21.4857595,5.03876639 21.8395259,5.27654379 C22.1932923,5.51432119 22.3129575,5.97932434 22.1179167,6.35833333 L22.1179167,6.35833333 Z" id="Path"></path>
                </g>
            </g>
        </g>
    </g>
</svg>